<svg width="100" height="110" viewBox="0 0 100 110" fill="none" xmlns="http://www.w3.org/2000/svg">
<path d="M66.0794 43.951C66.0804 39.7244 64.864 35.5869 62.5757 32.0334C60.2874 28.4798 57.0241 25.6605 53.1758 23.9126V0.32373C66.2811 1.47567 73.0889 5.60373 79.1847 11.2535C79.4903 11.5407 79.7958 11.8187 80.0892 12.0876V12.0907C82.6864 14.474 84.7519 16.3715 85.8183 19.2132L98.7556 53.6554C99.1023 54.5798 99.2197 55.5745 99.0979 56.5543C98.976 57.5341 98.6185 58.4697 98.0558 59.281C97.4932 60.0924 96.7423 60.7552 95.8675 61.2128C94.9926 61.6704 94.0198 61.9091 93.0325 61.9085H88.0489V69.0554L64.9031 51.0796C65.6866 48.7857 66.0851 46.378 66.0825 43.954L66.0794 43.951ZM34.8425 23.9737V0.736231C7.37306 4.8704 0 25.364 0 36.5901C0 54.2115 11.2536 67.879 16.5306 73.3576V110H68.8172V90.1021H81.9347C82.8575 90.1021 83.7375 89.8943 84.5197 89.5276L52.1767 64.4109C46.831 66.6169 40.8317 66.6294 35.4769 64.4457C30.1221 62.2619 25.8424 58.0576 23.564 52.7424C21.2855 47.4272 21.1915 41.4286 23.3022 36.0446C25.413 30.6606 29.5588 26.3242 34.8425 23.9737Z" fill="black"/>
</svg>
